<?xml version="1.0" standalone="yes"?>
<svg xmlns="http://www.w3.org/2000/svg" width="2828" height="1539">
<path style="fill:#ffffff; stroke:none;" d="M0 0L0 1539L2828 1539L2828 0L0 0z"/>
<path style="fill:#1ba99b; stroke:none;" d="M423 784C420.386 784 417.585 784.25 415.004 783.772C399.534 780.905 416.393 759.286 406.772 751.728C397.499 744.442 378.228 753.767 372.894 739.996C370.307 733.319 373.361 724.542 375.152 718C380.457 698.62 394.403 680.588 397.674 661C400.579 643.605 388.544 628.782 386.131 612C382.33 585.559 386.927 559.454 387 533L353 549L372 520L340 523C352.554 511.542 369.348 507.217 382 495.829C402.599 477.29 418.776 454.508 440 436.427C478.298 403.801 534.405 382 585 382L581 372C593.387 369.052 609.023 373.853 621 377.291C651.338 385.999 680.297 398.673 708 413.691C796.578 461.712 861.254 539.818 901.861 631C915.345 661.277 931.471 692.75 935.714 726C937.605 740.811 935.631 754.293 935 769C943.02 758.403 946.517 742.494 950.667 730C964.437 688.537 968.937 643.344 967.039 600C964.995 553.321 957.28 511.42 936.742 469C882.674 357.332 758.978 284.425 636 279.039C560.951 275.753 478.607 301.583 417 344.026C355.826 386.17 307.947 449.093 287.427 521C280.81 544.19 279.009 569.061 277.961 593C275.578 647.398 281.998 701.996 302.204 753C321.592 801.94 354.463 845.53 391.015 883C414.392 906.965 440.451 928.413 464.985 951.17C471.368 957.09 481.323 975.169 490.015 976.512C504.177 978.7 524.856 964.944 536 957.656C544.788 951.908 566.784 939.138 568.512 928C569.508 921.583 566.564 913.316 565.424 907C562.08 888.459 560.352 847.875 536 846.09C514.042 844.481 492.767 864.345 471 856.289C450.819 848.82 449.188 826.775 437.363 812.109C433.61 807.454 428.349 809.699 424.303 806.397C418.461 801.627 422.505 790.276 423 784z"/>
<path style="fill:#66b56c; stroke:none;" d="M581 372L581 373L592 372L581 372z"/>
<path style="fill:#8bc13f; stroke:none;" d="M582 372C585.781 393.975 594.36 414.358 595.911 437C598.789 479.027 586.891 523.527 564.305 559C553.919 575.312 539.984 588.407 529 604C555.567 604.22 581.474 608.398 608 603.196C624.889 599.884 639.795 591.756 656 586.355C690.511 574.851 728.42 572.072 760 593.004C768.781 598.824 776.232 605.892 782.916 614C791.642 624.584 798.951 636.42 804.424 649C810.759 663.56 817.671 679.172 820 695C791.51 662.389 755.661 631.771 711 626.286C696.916 624.557 683.008 627.884 669 628C673.097 639.189 681.254 649.369 686.742 660C697.837 681.497 707.187 704.959 710.728 729C714.533 754.829 711.901 781.004 713.039 807C715.446 861.972 724.826 924.007 765 965C785.957 952.886 805.243 929.352 822.039 911.996C849.533 883.586 876.895 856.112 901.424 825.004C917.071 805.16 932.547 784.781 935.714 759C941.292 713.583 919.388 670.111 901.306 630C856.079 529.678 783.163 447.011 682 400.691C650.709 386.364 616.972 372 582 372z"/>
<path style="fill:#66b56c; stroke:none;" d="M595 372L595 373L600 373L595 372M602 373L602 374L606 374L602 373M608.667 374.333L609.333 374.667L608.667 374.333M612 375L612 376L615 376L612 375M616 376L616 377L619 377L616 376M583 377L584 378L583 377M620.667 377.333L621.333 377.667L620.667 377.333M624.667 378.333L625.333 378.667L624.667 378.333M627.667 379.333L628.333 379.667L627.667 379.333M584 380L585 381L584 380M631 380L632 381L631 380M634 381L635 382L634 381M637 382L638 383L637 382M640 383L641 384L640 383M643 384L644 385L643 384M645.667 385.333L646.333 385.667L645.667 385.333M648 386L649 387L648 386M651 387L652 388L651 387M653.667 388.333L654.333 388.667L653.667 388.333M656 389L657 390L656 389M658.667 390.333L659.333 390.667L658.667 390.333M661 391L662 392L661 391M663.667 392.333L664.333 392.667L663.667 392.333M666 393L667 394L666 393M668 394L669 395L668 394M670.667 395.333L671.333 395.667L670.667 395.333M672.667 396.333L673.333 396.667L672.667 396.333M675 397L676 398L675 397M677 398L678 399L677 398M679 399L680 400L679 399M681.667 400.333L682.333 400.667L681.667 400.333M683.667 401.333L684.333 401.667L683.667 401.333M686 402L687 403L686 402M688 403L689 404L688 403M690 404L691 405L690 404M692 405L693 406L692 405M694 406L695 407L694 406M696 407L697 408L696 407M698 408L699 409L698 408M700 409L701 410L700 409M531 412L574.996 453L595 476C595.042 460.608 601.006 436.688 594.107 422.278C592.001 417.881 583.257 416.726 579 415.63C563.394 411.612 546.926 408.076 531 412M702 410L703 411L702 410M703.667 411.333L704.333 411.667L703.667 411.333M705 412L706 413L705 412M707 413L708 414L707 413M709 414L710 415L709 414M711 415L712 416L711 415M713 416L714 417L713 416M714.667 417.333L715.333 417.667L714.667 417.333M716 418L717 419L716 418M718 419L719 420L718 419M720 420L721 421L720 420M721 421L722 422L721 421M723 422L724 423L723 422M725 423L726 424L725 423M727 424L728 425L727 424M728 425L729 426L728 425M730 426L731 427L730 426M731 427L732 428L731 427M733 428L734 429L733 428M735 429L736 430L735 429M736 430L737 431L736 430M738 431L739 432L738 431M739 432L740 433L739 432M741 433L742 434L741 433M742 434L743 435L742 434M744 435L745 436L744 435M745 436L746 437L745 436M747 437L748 438L747 437M748 438L749 439L748 438M750 439L751 440L750 439M751 440L752 441L751 440M754 442L755 443L754 442M755 443L756 444L755 443z"/>
<path style="fill:#8bc13f; stroke:none;" d="M1034 443L1034 1016L1157 1016L1157 443L1034 443M1238 443L1238 1016L1549 1016C1609.64 1016 1675.86 1020.49 1730 987.796C1765.59 966.306 1787.84 933.212 1799.97 894C1812.88 852.318 1810 808.028 1810 765L1810 696C1810 614.59 1811.5 520.409 1732 472.45C1675.89 438.599 1608.92 443 1546 443L1238 443M1804 443L1852 492L1947 587L2042 682L2090 729L2090 730L2042 777L1947 872L1852 967L1804 1016L1925 1016L1961 1016L1978 1015.4L1996 999L2034 961L2129 866L2177 817L2178 817L2226 866L2321 961L2359 999L2377 1015.4L2394 1016L2429 1016L2550 1016C2544.86 1004.97 2531.57 995.566 2523 987L2465 929L2332 796C2310.66 774.657 2289.65 747.366 2265 730L2265 729C2289.65 711.634 2310.66 684.343 2332 663L2465 530L2523 472C2531.57 463.434 2544.86 454.032 2550 443L2429 443L2394 443L2377 443.603L2359 460L2321 498L2226 593L2178 642L2036 500L1996 460L1978 443.603L1961 443L1925 443L1804 443z"/>
<path style="fill:#66b56c; stroke:none;" d="M757 444L758 445L757 444M758 445L759 446L758 445M759 446L760 447L759 446M761 447L762 448L761 447M762 448L763 449L762 448M763 449L764 450L763 449M766 451L767 452L766 451M767 452L768 453L767 452M768 453L769 454L768 453M771 455L772 456L771 455M772 456L773 457L772 456M773 457L774 458L773 457M778 461L779 462L778 461M779 462L780 463L779 462M780 463L781 464L780 463M781 464L782 465L781 464M786 468L787 469L786 468M787 469L788 470L787 469M788 470L789 471L788 470M789 471L790 472L789 471M790 472L791 473L790 472M791 473L792 474L791 473M792 474L793 475L792 474M793 475L794 476L793 475M672 486L673 497L674 497L672 486z"/>
<path style="fill:#1ba99b; stroke:none;" d="M657 513C670.42 510.569 673 498.586 673 487C659.094 492.879 660.002 500.391 657 513z"/>
<path style="fill:#66b56c; stroke:none;" d="M669 488L670 489L669 488M668 489L669 490L668 489M665 491L666 492L665 491M664 492L665 493L664 492M810 492L811 493L810 492M811 493L812 494L811 493M661 494L662 495L661 494M812 494L813 495L812 494M660 495L661 496L660 495M813 495L814 496L813 495M814 496L815 497L814 496M658 497L658 501L659 501L658 497M815 497L816 498L815 497M816 498L817 499L816 498M672 499L673 500L672 499M817 499L818 500L817 499M818 500L819 501L818 500M671.333 501.667L671.667 502.333L671.333 501.667M670 503L671 504L670 503M669 505L670 506L669 505M657 506L657 512L658 512L657 506M668 506L669 507L668 506M823 506L824 507L823 506M667 507L668 508L667 507M824 507L825 508L824 507M666 508L667 509L666 508M825 508L826 509L825 508M665 509L666 510L665 509M826 509L827 510L826 509M827 510L828 511L827 510M662 511L663 512L662 511M660 512L661 513L660 512M657 513L658 514L657 513M830 514L831 515L830 514M831 515L832 516L831 515M832 516L833 517L832 516M833 517L834 518L833 517M836 521L837 522L836 521M837 522L838 523L837 522M838 523L839 524L838 523M839 524L840 525L839 524M841 527L842 528L841 527M842 528L843 529L842 528M843 529L844 530L843 529M845 532L846 533L845 532M846 533L847 534L846 533M847 534L848 535L847 534M849 537L850 538L849 537M850 538L851 539L850 538M851 540L852 541L851 540M852 541L853 542L852 541M854 544L855 545L854 544M855 545L856 546L855 545M856 547L857 548L856 547M857 548L858 549L857 548z"/>
<path style="fill:#ffffff; stroke:none;" d="M352 549L351 551L352 549z"/>
<path style="fill:#66b56c; stroke:none;" d="M858 550L859 551L858 550M859 551L860 552L859 551M860 553L861 554L860 553M861 554L862 555L861 554M862 556L863 557L862 556M864 559L865 560L864 559M865 561L866 562L865 561M866 562L867 563L866 562M867 564L868 565L867 564M868 566L869 567L868 566M869 567L870 568L869 567z"/>
<path style="fill:#ffffff; stroke:none;" d="M1361 567L1361 892L1560 892C1591.15 892 1628.13 897.51 1656 880.536C1677.91 867.191 1683.92 843.715 1686.71 820C1690.27 789.842 1687 757.382 1687 727C1687 697.639 1690.26 666.097 1686.42 637C1683.43 614.255 1677.66 592.343 1657 579.09C1629.66 561.557 1592.86 567 1562 567L1361 567z"/>
<path style="fill:#66b56c; stroke:none;" d="M870 569L871 570L870 569M871 571L872 572L871 571M872 572L873 573L872 572M873 574L874 575L873 574M874 576L875 577L874 576M698 577L698 578L715 578L698 577M688 578L688 579L692 579L688 578z"/>
<path style="fill:#23ad4b; stroke:none;" d="M530 604C538.394 618.509 563.444 626.433 579 629.079C607.745 633.97 637.155 631.76 666 628.829C681.97 627.207 696.886 624.229 713 626.286C744.042 630.248 772.263 648.605 795 669.17C803.582 676.931 810.744 687.187 820 694C814.465 674.494 808.445 654.738 798.424 637C791.577 624.88 784.01 613.782 774 604.015C744.057 574.796 701.181 573.259 663 584.424C647.635 588.918 633.39 596.999 618 601.115C590.158 608.561 558.32 609.258 530 604z"/>
<path style="fill:#66b56c; stroke:none;" d="M720 578L720 579L724 579L720 578M875 578L876 579L875 578M682 579L682 580L685 580L682 579M727.667 579.333L728.333 579.667L727.667 579.333M876.333 579.667L876.667 580.333L876.333 579.667M677.667 580.333L678.333 580.667L677.667 580.333M731.667 580.333L732.333 580.667L731.667 580.333M672 581L672 582L675 582L672 581M735.667 581.333L736.333 581.667L735.667 581.333M877 581L878 582L877 581M669 582L670 583L669 582M738.667 582.333L739.333 582.667L738.667 582.333M665.667 583.333L666.333 583.667L665.667 583.333M741 583L742 584L741 583M878 583L879 584L878 583M662 584L663 585L662 584M744 584L745 585L744 584M658.667 585.333L659.333 585.667L658.667 585.333M746 585L747 586L746 585M879 585L880 586L879 585M655.667 586.333L656.333 586.667L655.667 586.333M748 586L749 587L748 586M652.667 587.333L653.333 587.667L652.667 587.333M750 587L751 588L750 587M880 587L881 588L880 587M650 588L651 589L650 588M752 588L753 589L752 588M647 589L648 590L647 589M754 589L755 590L754 589M881 589L882 590L881 589M644.667 590.333L645.333 590.667L644.667 590.333M756 590L757 591L756 590M642 591L643 592L642 591M882 591L883 592L882 591M639.667 592.333L640.333 592.667L639.667 592.333M759 592L760 593L759 592M883.333 592.667L883.667 593.333L883.333 592.667M637 593L638 594L637 593M635 594L636 595L635 594M762 594L763 595L762 594M884.333 594.667L884.667 595.333L884.333 594.667M632 595L633 596L632 595M630 596L631 597L630 596M765 596L766 597L765 596M885.333 596.667L885.667 597.333L885.333 596.667M628 597L629 598L628 597M766 597L767 598L766 597M625 598L626 599L625 598M767 598L768 599L767 598M886 598L887 599L886 598M622.667 599.333L623.333 599.667L622.667 599.333M619.667 600.333L620.333 600.667L619.667 600.333M887 600L888 601L887 600M615.667 601.333L616.333 601.667L615.667 601.333M771 601L772 602L771 601M611.667 602.333L612.333 602.667L611.667 602.333M772 602L773 603L772 602M888 602L889 603L888 602M606 603L606 604L609 604L606 603M773 603L774 604L773 603M529 604L530 605L529 604M532 604L532 605L537 605L532 604M600 604L600 605L603 605L600 604M774 604L775 605L774 604M889 604L890 605L889 604M542 605L542 606L548 606L542 605M590 605L590 606L596 606L590 605M775 605L776 606L775 605M557 606L557 607L583 607L557 606M776 606L777 607L776 606M890 606L891 607L890 606M777 607L778 608L777 607M778 608L779 609L778 608M891.333 608.667L891.667 609.333L891.333 608.667M779 609L780 610L779 609M892.333 610.667L892.667 611.333L892.333 610.667M893.333 612.667L893.667 613.333L893.333 612.667M783 614L784 615L783 614M894.333 614.667L894.667 615.333L894.333 614.667M784 615L785 616L784 615M895 617L896 618L895 617M786 618L787 619L786 618M787 619L788 620L787 619M896 619L897 620L896 619M897 621L898 622L897 621M789 622L790 623L789 622M790 623L791 624L790 623M898 623L899 624L898 623M694 625L694 626L706 626L694 625M791 625L792 626L791 625M899 625L900 626L899 625M682 626L682 627L688 627L682 626M712 626L712 627L715 627L712 626M792 626L793 627L792 626M673 627L673 628L677 628L673 627M718 627L718 628L721 628L718 627M900.333 627.667L900.667 628.333L900.333 627.667M723.667 628.333L724.333 628.667L723.667 628.333M793 628L794 629L793 628M727.667 629.333L728.333 629.667L727.667 629.333M730.667 630.333L731.333 630.667L730.667 630.333M901 630L902 631L901 630M733.667 631.333L734.333 631.667L733.667 631.333M795 631L796 632L795 631M736.667 632.333L737.333 632.667L736.667 632.333M902 632L903 633L902 632M739 633L740 634L739 633M796 633L797 634L796 633M742 634L743 635L742 634M903 634L904 635L903 634M744 635L745 636L744 635M797 635L798 636L797 635M746 636L747 637L746 636M904.333 636.667L904.667 637.333L904.333 636.667M749 637L750 638L749 637M798 637L799 638L798 637M751 638L752 639L751 638M799 638L800 639L799 638M905.333 638.667L905.667 639.333L905.333 638.667M753 639L754 640L753 639M755 640L756 641L755 640M800 640L801 641L800 640M756 641L757 642L756 641M906 641L907 642L906 641M758 642L759 643L758 642M801 642L802 643L801 642M760 643L761 644L760 643M907 643L908 644L907 643M762 644L763 645L762 644M802 644L803 645L802 644M763 645L764 646L763 645M908.333 645.667L908.667 646.333L908.333 645.667M765 646L766 647L765 646M803 646L804 647L803 646M768 648L769 649L768 648M909 648L910 649L909 648M804 649L805 650L804 649M771 650L772 651L771 650M910 650L911 651L910 650M805 651L806 652L805 651M774 652L775 653L774 652M911.333 652.667L911.667 653.333L911.333 652.667M775 653L776 654L775 653M806 653L807 654L806 653M777 654L778 655L777 654M778 655L779 656L778 655M807.333 655.667L807.667 656.333L807.333 655.667M912 655L913 656L912 655M781 657L782 658L781 657M913.333 657.667L913.667 658.333L913.333 657.667M782 658L783 659L782 658M808 658L809 659L808 658M783 659L784 660L783 659M809.333 660.667L809.667 661.333L809.333 660.667M914 660L915 661L914 660M786 661L787 662L786 661M787 662L788 663L787 662M915.333 662.667L915.667 663.333L915.333 662.667M788 663L789 664L788 663M810 663L811 664L810 663M916 665L917 666L916 665M811 666L812 667L811 666M793 667L794 668L793 667M917 667L918 668L917 667M794 668L795 669L794 668M812.333 668.667L812.667 669.333L812.333 668.667M795 669L796 670L795 669M918.333 669.667L918.667 670.333L918.333 669.667M796 670L797 671L796 670M797 671L798 672L797 671M813.333 671.667L813.667 672.333L813.333 671.667M798 672L799 673L798 672M919 672L920 673L919 672M814.333 674.667L814.667 675.333L814.333 674.667M920 674L921 675L920 674M921.333 676.667L921.667 677.333L921.333 676.667M815.333 677.667L815.667 678.333L815.333 677.667M922 679L923 680L922 679M816 681L817 682L816 681M923 681L924 682L923 681M809 683L810 684L809 683M903 683L904 684L903 683M924.333 683.667L924.667 684.333L924.333 683.667M810 684L811 685L810 684M817.333 684.667L817.667 685.333L817.333 684.667M900 684L901 685L900 684M811 685L812 686L811 685M812 686L813 687L812 686M925.333 686.667L925.667 687.333L925.333 686.667M813 687L814 688L813 687M814 688L815 689L814 688M818 688L819 689L818 688M926 689L927 690L926 689M819.333 691.667L819.667 692.333L819.333 691.667M817 692L818 693L817 692M927 692L928 693L927 692M818 693L819 694L818 693M819 694L820 695L819 694M928 695L929 696L928 695M929.333 698.667L929.667 699.333L929.333 698.667M930.333 701.667L930.667 702.333L930.333 701.667M931.333 705.667L931.667 706.333L931.333 705.667M932.333 709.667L932.667 710.333L932.333 709.667M933 713L933 716L934 716L933 713M934 718L934 722L935 722L934 718M935 724L935 730L936 730L935 724M936 733L936 756L937 756L936 733M935 760L935 764L936 764L935 760M934 766L934 770L935 770L934 766z"/>
<path style="fill:#1ba99b; stroke:none;" d="M934 770L935 771L934 770z"/>
<path style="fill:#66b56c; stroke:none;" d="M933.333 771.667L933.667 772.333L933.333 771.667M905 819L906 820L905 819M904 821L905 822L904 821M903 822L904 823L903 822M902 823L903 824L902 823M901.333 824.667L901.667 825.333L901.333 824.667M900 826L901 827L900 826M899 827L900 828L899 827M898.333 828.667L898.667 829.333L898.333 828.667M897 830L898 831L897 830M896 831L894 834L896 831z"/>
<path style="fill:#1ba99b; stroke:none;" d="M896 832L897 833L896 832M895 833L896 834L895 833M894 834L895 835L894 834z"/>
<path style="fill:#66b56c; stroke:none;" d="M893 835L894 836L893 835M892 836L890 839L892 836z"/>
<path style="fill:#1ba99b; stroke:none;" d="M892 837L893 838L892 837M891 838L892 839L891 838M890 839L891 840L890 839M889 840L828 907C845.565 894.627 861.604 875.264 875.576 859C879.549 854.375 889.208 846.334 889 840z"/>
<path style="fill:#66b56c; stroke:none;" d="M887 842L888 843L887 842M886 843L887 844L886 843M885 844L886 845L885 844M882 848L883 849L882 848M881 849L882 850L881 849M880 850L881 851L880 850M879 851L880 852L879 851M876 855L877 856L876 855M875 856L876 857L875 856M874 857L875 858L874 857M873 858L874 859L873 858M872 859L873 860L872 859M867 865L868 866L867 865M866 866L867 867L866 866M865 867L866 868L865 867M864 868L865 869L864 868M863 869L864 870L863 869M862 870L863 871L862 870M721.333 875.667L721.667 876.333L721.333 875.667M855 878L856 879L855 878M722 879L722 882L723 882L722 879M854 879L855 880L854 879M853 880L854 881L853 880M852 881L853 882L852 881M851 882L852 883L851 882M723 883L723 886L724 886L723 883M850 883L851 884L850 883M849 884L850 885L849 884M848 885L849 886L848 885M847 886L848 887L847 886M724.333 887.667L724.667 888.333L724.333 887.667M846 887L847 888L846 887M845 888L846 889L845 888M844 889L845 890L844 889M843 890L844 891L843 890M725.333 891.667L725.667 892.333L725.333 891.667M842 891L843 892L842 891M841 892L842 893L841 892M840 893L841 894L840 893M726.333 894.667L726.667 895.333L726.333 894.667M839 894L840 895L839 894M838 895L839 896L838 895M837 896L838 897L837 896M836 897L837 898L836 897M835 898L836 899L835 898M834 899L835 900L834 899M833 900L834 901L833 900M832 901L833 902L832 901M831 902L832 903L831 902M830 903L831 904L830 903M829 904L830 905L829 904M828 905L829 906L828 905M827 906L828 907L827 906M826 907L827 908L826 907M825 908L826 909L825 908M824 909L825 910L824 909M823 910L824 911L823 910M822 911L823 912L822 911M821 912L822 913L821 912M820 913L821 914L820 913M819 914L820 915L819 914M818 915L819 916L818 915M757 956L758 957L757 956M758 957L759 958L758 957M759 959L760 960L759 959M760 960L761 961L760 960M761 961L762 962L761 961M762 962L765 965L762 962z"/>
<path style="fill:#1ba99b; stroke:none;" d="M762 963L763 964L762 963z"/>
<path style="fill:#66b56c; stroke:none;" d="M767 963L768 964L767 963z"/>
<path style="fill:#1ba99b; stroke:none;" d="M763 964L764 965L763 964z"/>
<path style="fill:#66b56c; stroke:none;" d="M766 964L767 965L766 964z"/>
<path style="fill:#1ba99b; stroke:none;" d="M764 965L764 967L766 965L764 965M519 1052L519 1055L726 1055L739 1006C699.21 998.613 650.453 1003.16 613 1018.45C600.07 1023.73 589.426 1032.97 577 1039.19C558.511 1048.44 539.488 1052 519 1052M507.105 1084.74C498.693 1088.31 498.912 1116.98 508.019 1119.57C524.71 1124.31 548.614 1120 566 1120L693 1120L736 1120C740.664 1120 748.743 1121.51 752.566 1118.26C758.499 1113.21 757.057 1086.68 748.995 1084.43C732.771 1079.91 709.87 1084 693 1084L572 1084L527 1084C521.158 1084 512.558 1082.43 507.105 1084.74M506.133 1140.03C498.561 1144.39 499.388 1171.47 508.043 1174.35C513.659 1176.22 521.14 1175 527 1175L565 1175L694 1175L736 1175C741.024 1175 748.722 1176.41 752.682 1172.57C757.644 1167.76 757.442 1141.62 749.956 1139.43C733.675 1134.68 709.993 1139 693 1139L568 1139L524 1139C518.953 1139 510.639 1137.44 506.133 1140.03M529 1196C531.039 1202.93 535.596 1209.26 539.895 1215C568.201 1252.8 613.736 1246.89 656 1245.04C663.833 1244.7 672.299 1246.13 680 1244.48C700.473 1240.11 725.783 1217.64 728 1196L529 1196z"/>
</svg>
